<svg width="50" height="50" viewBox="0 0 50 50" fill="none" xmlns="http://www.w3.org/2000/svg">
<path d="M28.125 4.1665H21.875C20.1042 4.1665 18.75 5.52067 18.75 7.2915V10.4165H20.8333V7.2915C20.8333 6.6665 21.25 6.24984 21.875 6.24984H28.125C28.75 6.24984 29.1667 6.6665 29.1667 7.2915V10.4165H31.25V7.2915C31.25 5.52067 29.8958 4.1665 28.125 4.1665Z" fill="#424242"/>
<path d="M45.8327 12.5002V37.5002C45.8327 39.7918 43.9577 41.6668 41.666 41.6668H8.33268C6.04102 41.6668 4.16602 39.7918 4.16602 37.5002V12.5002C4.16602 10.2085 6.04102 8.3335 8.33268 8.3335H41.666C43.9577 8.3335 45.8327 10.2085 45.8327 12.5002Z" fill="#6D4C41"/>
<path d="M41.666 26.0418H8.33268C6.04102 26.0418 4.16602 24.1668 4.16602 21.8752V12.5002C4.16602 10.2085 6.04102 8.3335 8.33268 8.3335H41.666C43.9577 8.3335 45.8327 10.2085 45.8327 12.5002V21.8752C45.8327 24.1668 43.9577 26.0418 41.666 26.0418Z" fill="#8D6E63"/>
<path d="M27.0833 23.9582H22.9167C22.2917 23.9582 21.875 23.5415 21.875 22.9165V20.8332C21.875 20.2082 22.2917 19.7915 22.9167 19.7915H27.0833C27.7083 19.7915 28.125 20.2082 28.125 20.8332V22.9165C28.125 23.5415 27.7083 23.9582 27.0833 23.9582Z" fill="#FFF3E0"/>
<path d="M50.0007 48.2397L48.2402 50.0002L44.959 46.7085L41.834 43.5835L43.584 41.8335L46.709 44.9585L50.0007 48.2397Z" fill="#78909C"/>
<path d="M44.791 36.979C44.791 41.3061 41.3056 44.7915 36.9785 44.7915C32.6514 44.7915 29.166 41.3061 29.166 36.979C29.166 32.6519 32.6514 29.1665 36.9785 29.1665C41.3056 29.1665 44.791 32.6519 44.791 36.979Z" fill="#BBDEFB"/>
<path d="M36.9792 28.125C32.0896 28.125 28.125 32.0896 28.125 36.9792C28.125 41.8687 32.0896 45.8333 36.9792 45.8333C41.8687 45.8333 45.8333 41.8687 45.8333 36.9792C45.8333 32.0896 41.8687 28.125 36.9792 28.125ZM36.9792 43.75C33.2396 43.75 30.2083 40.7187 30.2083 36.9792C30.2083 33.2396 33.2396 30.2083 36.9792 30.2083C40.7187 30.2083 43.75 33.2396 43.75 36.9792C43.75 40.7187 40.7187 43.75 36.9792 43.75Z" fill="#78909C"/>
<path d="M50.0007 48.2397L48.2402 50.0002L44.959 46.7085L46.709 44.9585L50.0007 48.2397Z" fill="#37474F"/>
<path d="M39.5258 35.4165C39.2633 35.4165 38.9998 35.3175 38.7977 35.1196C37.8165 34.1592 36.1436 34.1592 35.1623 35.1196C34.7508 35.5228 34.0915 35.5134 33.6894 35.103C33.2873 34.6915 33.2946 34.0332 33.7061 33.63C34.5883 32.7665 35.7508 32.2915 36.98 32.2915C38.2092 32.2915 39.3717 32.7665 40.255 33.63C40.6665 34.0332 40.6738 34.6925 40.2717 35.103C40.0665 35.3113 39.7967 35.4165 39.5258 35.4165Z" fill="#E3F2FD"/>
</svg>
