<svg width="19" height="19" viewBox="0 0 19 19" fill="none" xmlns="http://www.w3.org/2000/svg">
<path d="M6.33333 0.66748V1.50081H2.16667C1.2475 1.50081 0.5 2.24831 0.5 3.16748V6.50081V9.83415V13.1675C0.5 14.0866 1.2475 14.8341 2.16667 14.8341H8.24577C8.08827 14.3058 8 13.7466 8 13.1675H2.16667V11.5008H8.24577C8.42493 10.8983 8.69814 10.3375 9.0498 9.83415H2.16667V6.50081V3.16748H15.5V7.57992C16.1025 7.75908 16.6633 8.03228 17.1667 8.38395V6.50081V3.16748C17.1667 2.24831 16.4192 1.50081 15.5 1.50081H11.3333V0.66748H6.33333ZM8.83333 6.50081C8.61232 6.50081 8.40036 6.58861 8.24408 6.74489C8.0878 6.90117 8 7.11313 8 7.33415C8 7.55516 8.0878 7.76712 8.24408 7.9234C8.40036 8.07968 8.61232 8.16748 8.83333 8.16748C9.05435 8.16748 9.26631 8.07968 9.42259 7.9234C9.57887 7.76712 9.66667 7.55516 9.66667 7.33415C9.66667 7.11313 9.57887 6.90117 9.42259 6.74489C9.26631 6.58861 9.05435 6.50081 8.83333 6.50081ZM13.8333 9.00081C11.5 9.00081 9.66667 10.8341 9.66667 13.1675C9.66667 15.5008 11.5 17.3341 13.8333 17.3341C14.6667 17.3341 15.5006 17.0835 16.1673 16.6668L17.6663 18.1675L18.8333 17.0005L17.3327 15.5015C17.7493 14.8348 18 14.0008 18 13.1675C18 10.8341 16.1667 9.00081 13.8333 9.00081ZM13.8333 10.6675C15.25 10.6675 16.3333 11.7508 16.3333 13.1675C16.3333 14.5841 15.25 15.6675 13.8333 15.6675C12.4167 15.6675 11.3333 14.5841 11.3333 13.1675C11.3333 11.7508 12.4167 10.6675 13.8333 10.6675Z" fill="white"/>
</svg>
